<svg width="230" height="226" viewBox="0 0 230 226" fill="none" xmlns="http://www.w3.org/2000/svg">
<g clip-path="url(#clip0_1_3)">
<path d="M114.993 0C47.1607 0 0 47.1582 0 112.733C0 178.304 47.1582 225.141 114.993 225.141C182.829 225.141 229.987 178.304 229.987 112.733C229.987 47.1607 182.826 0 114.993 0ZM105.344 184.613C59.063 184.613 26.3088 150.792 26.3088 102.729C26.3088 54.6656 59.0605 20.4894 105.344 20.4894C151.628 20.4894 184.38 54.6681 184.38 102.729C184.38 150.792 151.628 184.613 105.344 184.613Z" fill="#282828"/>
<path d="M71.964 58.617L58.7538 59.9527C54.6934 60.3633 51.6038 63.7824 51.6038 67.8631V98.4452C51.6038 101.583 54.3158 104.034 57.4384 103.717L70.6486 102.381C74.7089 101.971 77.7986 98.5516 77.7986 94.471V63.8889C77.7986 60.7511 75.0866 58.3001 71.964 58.617Z" fill="#282828"/>
<path d="M125.704 58.617L112.494 59.9527C108.434 60.3633 105.344 63.7824 105.344 67.8631V98.4452C105.344 101.583 108.056 104.034 111.179 103.717L124.389 102.381C128.449 101.971 131.539 98.5516 131.539 94.471V63.8889C131.539 60.7511 128.827 58.3001 125.704 58.617Z" fill="#282828"/>
</g>
<defs>
<clipPath id="clip0_1_3">
<rect width="230" height="225.141" fill="white"/>
</clipPath>
</defs>
</svg>
